<?xml version="1.0" encoding="utf-8"?>
<!-- Generator: Adobe Illustrator 16.0.0, SVG Export Plug-In . SVG Version: 6.00 Build 0)  -->
<!DOCTYPE svg PUBLIC "-//W3C//DTD SVG 1.1//EN" "http://www.w3.org/Graphics/SVG/1.1/DTD/svg11.dtd">
<svg version="1.1" id="Layer_1" xmlns="http://www.w3.org/2000/svg" xmlns:xlink="http://www.w3.org/1999/xlink" x="0px" y="0px"
	 width="105px" height="35px" viewBox="0 0 105 35" enable-background="new 0 0 105 35" xml:space="preserve">
<rect x="17.893" y="5.334" fill="none" width="71.851" height="10.765"/>
<text transform="matrix(1 0 0 1 17.8926 13.6572)"><tspan x="0" y="0" fill="#FFFFFF" font-family="'Arial-BoldMT'" font-size="11.6243">C R E</tspan><tspan x="31.001" y="0" font-family="'Arial-BoldMT'" font-size="11.6243"> </tspan><tspan x="34.23" y="0" fill="none" font-family="'Arial-BoldMT'" font-size="11.6243">O</tspan><tspan x="43.272" y="0" font-family="'Arial-BoldMT'" font-size="11.6243"> </tspan><tspan x="46.502" y="0" fill="#FFFFFF" font-family="'Arial-BoldMT'" font-size="11.6243">N S</tspan></text>
<rect x="19.211" y="17.106" fill="none" width="65.91" height="13.158"/>
<text transform="matrix(1 0 0 1 19.2109 22.9453)" fill="#706F70" font-family="'ArialNarrow'" font-size="8.1557">D    E    S    I    G    N</text>
<path opacity="0.8" fill="#FFFEFE" d="M54.039,5.54v6.232l-1.504-0.003c-0.352-0.673-0.551-1.443-0.551-2.261
	C51.984,7.854,52.799,6.396,54.039,5.54z"/>
<path opacity="0.8" fill="#FFFFFF" d="M59.277,5.612l-4.824,5.832V5.285c0.644-0.35,1.376-0.548,2.154-0.548
	C57.602,4.736,58.523,5.061,59.277,5.612z"/>
<path opacity="0.8" fill="#FFFFFF" d="M61.23,9.507c0,0.827-0.202,1.604-0.562,2.281l-5.944-0.015l4.88-5.899
	C60.6,6.75,61.23,8.053,61.23,9.507z"/>
<path opacity="0.8" fill="#FFFFFF" d="M60.414,12.215c-0.833,1.247-2.229,2.063-3.807,2.063c-0.778,0-1.511-0.198-2.154-0.548
	v-1.529L60.414,12.215z"/>
<path opacity="0.8" fill="#FFFFFF" d="M54.039,12.603v0.872c-0.152-0.105-0.3-0.22-0.438-0.343L54.039,12.603z"/>
<path opacity="0.8" fill="#FFFFFF" d="M53.827,12.2l-0.529,0.64c-0.187-0.198-0.358-0.413-0.51-0.643L53.827,12.2z"/>
<polygon fill="none" points="61.14,11.79 61.14,12.217 60.414,12.215 54.453,12.201 54.453,13.868 54.039,13.868 54.039,12.603 
	53.601,13.132 53.313,13.48 52.998,13.203 53.298,12.839 53.827,12.2 52.788,12.197 52.472,12.196 52.474,11.769 52.535,11.769 
	54.039,11.772 54.039,4.924 54.453,4.924 54.453,11.443 59.277,5.612 59.641,5.173 59.955,5.451 59.604,5.875 54.725,11.774 
	60.669,11.789 "/>
</svg>
