<?xml version="1.0" encoding="utf-8"?>
<!-- Generator: Adobe Illustrator 16.0.0, SVG Export Plug-In . SVG Version: 6.00 Build 0)  -->
<!DOCTYPE svg PUBLIC "-//W3C//DTD SVG 1.1//EN" "http://www.w3.org/Graphics/SVG/1.1/DTD/svg11.dtd">
<svg version="1.1" xmlns="http://www.w3.org/2000/svg" xmlns:xlink="http://www.w3.org/1999/xlink" x="0px" y="0px" width="3580px"
	 height="2408px" viewBox="0 0 3580 2408" enable-background="new 0 0 3580 2408" xml:space="preserve">
<g id="Layer_1" display="none">
</g>
<g id="Layer_2" display="none">
</g>
<g id="Layer_3" display="none">
	<path display="inline" fill="#E71E27" stroke="#E52028" stroke-miterlimit="10" d="M1990.516,649.507H773.567
		c-26.339,0-47.69,22.309-47.69,49.831c0,27.522,21.351,49.831,47.69,49.831h302.552c26.339,0,47.691,22.309,47.691,49.831
		s-21.352,49.831-47.691,49.831H573.082c-26.339,0-47.69,22.309-47.69,49.831c0,27.521,21.351,49.83,47.69,49.83h436.996
		c17.989,0,32.575,22.311,32.575,49.831c0,27.522-14.586,49.83-32.575,49.83H737.519c-17.996,0-33.672,10.418-41.786,25.8
		c-4.286,7.637-6.732,16.519-6.732,26.003c0,28.462,22.085,51.546,49.332,51.546H978.41c2.518,0,4.989-0.197,7.404-0.577h57.943
		c16.529,0,29.931,22.31,29.931,49.831s-13.402,49.831-29.931,49.831H507.568c-26.339,0-47.69,22.309-47.69,49.831
		c0,27.521,21.351,49.831,47.69,49.831h385.035c26.34,0,47.69,22.308,47.69,49.83c0,27.521-21.351,49.831-47.69,49.831H720.928
		c-26.339,0-47.69,22.309-47.69,49.831c0,27.521,21.351,49.83,47.69,49.83h146.158c26.339,0,47.69,22.31,47.69,49.831
		s-21.351,49.831-47.69,49.831h-399.22c-26.339,0-47.69,22.309-47.69,49.83c0,27.522,21.351,49.831,47.69,49.831h1040.758
		c12.534,0,24.745-0.347,36.49-1.014c3.157,0.667,6.425,1.014,9.764,1.014h240.077c7.396,0,14.412-1.698,20.704-4.75
		c1.887-0.907,3.71-1.947,5.454-3.093l2.549-15.53l9.891-60.28l164.816-1004.938C1998.369,654.34,1994.849,649.507,1990.516,649.507
		z M1156.219,1449.629c-1.666,0.181-3.363,0.28-5.075,0.28h-111.712c-1.712,0-3.41-0.1-5.076-0.28
		c-24.128-2.73-42.922-24.644-42.922-51.267c0-26.631,18.794-48.535,42.922-51.266c1.666-0.182,3.364-0.28,5.076-0.28h111.712
		c1.712,0,3.41,0.099,5.075,0.28c24.13,2.722,42.923,24.635,42.923,51.266C1199.142,1424.985,1180.349,1446.898,1156.219,1449.629z"
		/>
	<path display="inline" fill="#E71E27" stroke="#E52028" stroke-miterlimit="10" d="M1813.157,1741.051l-0.527,3.093h-5.171
		C1809.43,1743.236,1811.335,1742.196,1813.157,1741.051z"/>
	<path display="inline" fill="#E71E27" stroke="#E52028" stroke-miterlimit="10" d="M558.44,1501.456
		c0,28.462-22.451,51.547-50.15,51.547H264.23c-27.699,0-50.15-23.085-50.15-51.547c0-28.47,22.452-51.546,50.15-51.546h244.06
		C535.989,1449.91,558.44,1472.986,558.44,1501.456z"/>
	<path display="inline" fill="#E71E27" stroke="#E52028" stroke-miterlimit="10" d="M268.328,1697.348
		c0,26.623-19.637,48.535-44.849,51.266c-1.741,0.182-3.513,0.28-5.303,0.28H101.45c-1.79,0-3.563-0.099-5.303-0.28
		c-25.213-2.73-44.85-24.643-44.85-51.266c0-26.631,19.637-48.537,44.85-51.266c1.74-0.182,3.513-0.281,5.303-0.281h116.726
		c1.79,0,3.563,0.1,5.303,0.281C248.691,1648.803,268.328,1670.717,268.328,1697.348z"/>
	<circle display="inline" fill="#FFFFFF" stroke="#FFFFFF" stroke-miterlimit="10" cx="1713.014" cy="795.326" r="42.726"/>
	<path display="inline" fill="#E32129" stroke="#E52028" stroke-miterlimit="10" d="M1770.657,598.958h-78.909
		c0-155.085-21.891-349.214-141.415-326.293c-94.799,18.18-189.377,171.208-189.377,326.293h-87.602
		c7.203-223.332,122.396-377.304,260.993-400.822C1712.201,167.956,1794.266,398.547,1770.657,598.958z"/>
	<circle display="inline" fill="#FFFFFF" stroke="#FFFFFF" stroke-miterlimit="10" cx="1316.081" cy="795.326" r="42.726"/>
</g>
<g id="Layer_4" display="none">
</g>
<g id="Layer_5" display="none">
	<rect x="1256.69" y="1018.076" display="inline" fill="none" width="2208.333" height="453.381"/>
	<text transform="matrix(1 0 0 1 1256.6899 1402.0762)" display="inline"><tspan x="0" y="0" fill="#0B1339" font-family="'TrajanPro-Bold'" font-size="600">U</tspan><tspan x="511.194" y="0" fill="#0B1339" font-family="'TrajanPro-Bold'" font-size="300">mojashop</tspan></text>
</g>
<g id="Layer_6" display="none">
	<path display="inline" fill="#FFFFFF" d="M1893.839,1573l-6.926,81H1396.9c-21.032,0-38.093-18.129-38.093-40.492
		c0-22.379,17.061-40.508,38.093-40.508H1893.839z"/>
	<path fill="#1A184E" stroke="#0A0505" stroke-width="4" stroke-miterlimit="10" d="M3361.101,1603.952
		c0,9.109-14.402,16.495-32.168,16.495h-1478.82l5.919-32.99h1472.901C3346.698,1587.457,3361.101,1594.843,3361.101,1603.952z"/>
</g>
<g id="design1" display="none">
	<linearGradient id="SVGID_1_" gradientUnits="userSpaceOnUse" x1="-23.6973" y1="877.167" x2="977.7864" y2="1492.6985">
		<stop  offset="0" style="stop-color:#FFF33B"/>
		<stop  offset="0.0284" style="stop-color:#FFE029"/>
		<stop  offset="0.0622" style="stop-color:#FFD218"/>
		<stop  offset="0.0971" style="stop-color:#FEC90F"/>
		<stop  offset="0.1342" style="stop-color:#FDC70C"/>
		<stop  offset="0.4745" style="stop-color:#F3903F"/>
		<stop  offset="0.8876" style="stop-color:#ED683C"/>
		<stop  offset="1" style="stop-color:#E93E3A"/>
	</linearGradient>
	<linearGradient id="SVGID_2_" gradientUnits="userSpaceOnUse" x1="56.7393" y1="1242.1602" x2="1233.2607" y2="1242.1602">
		<stop  offset="0" style="stop-color:#FFF33B"/>
		<stop  offset="0.0595" style="stop-color:#FFE029"/>
		<stop  offset="0.1303" style="stop-color:#FFD218"/>
		<stop  offset="0.2032" style="stop-color:#FEC90F"/>
		<stop  offset="0.2809" style="stop-color:#FDC70C"/>
		<stop  offset="0.6685" style="stop-color:#F3903F"/>
		<stop  offset="0.8876" style="stop-color:#ED683C"/>
		<stop  offset="1" style="stop-color:#E93E3A"/>
	</linearGradient>
	<path display="inline" fill="url(#SVGID_1_)" stroke="url(#SVGID_2_)" stroke-miterlimit="10" d="M1076.596,704.628H201.397
		L57.239,1771.795c0,4.362,3.445,7.898,7.694,7.898h1160.133c4.249,0,7.694-3.536,7.694-7.898l-151.14-1064.639
		C1079.267,708.745,1076.979,706.871,1076.596,704.628z"/>
	<circle display="inline" fill="#FFFFFF" stroke="#E52028" stroke-miterlimit="10" cx="408.207" cy="828.346" r="44.042"/>
	<circle display="inline" fill="#FFFFFF" stroke="#E52028" stroke-miterlimit="10" cx="877.167" cy="828.346" r="44.042"/>
	<path display="inline" fill="#501115" stroke="#E52028" stroke-miterlimit="10" d="M966.484,683.636
		c0,1.398-0.008,2.804-0.024,4.195h-47.03c0-161.983-108.513-293.298-242.364-293.298c-133.86,0-242.365,131.315-242.365,293.298
		h-47.038c-0.016-1.391-0.023-2.797-0.023-4.195c0-193.435,129.577-350.245,289.426-350.245
		C836.908,333.392,966.484,490.201,966.484,683.636z"/>
	<linearGradient id="SVGID_3_" gradientUnits="userSpaceOnUse" x1="298.0313" y1="456.7529" x2="836.5098" y2="787.7124">
		<stop  offset="0" style="stop-color:#FFF33B"/>
		<stop  offset="0.0284" style="stop-color:#FFE029"/>
		<stop  offset="0.0622" style="stop-color:#FFD218"/>
		<stop  offset="0.0971" style="stop-color:#FEC90F"/>
		<stop  offset="0.1342" style="stop-color:#FDC70C"/>
		<stop  offset="0.4745" style="stop-color:#F3903F"/>
		<stop  offset="0.8876" style="stop-color:#ED683C"/>
		<stop  offset="1" style="stop-color:#E93E3A"/>
	</linearGradient>
	<linearGradient id="SVGID_4_" gradientUnits="userSpaceOnUse" x1="206.9727" y1="687.8311" x2="1140.6943" y2="687.8311">
		<stop  offset="0" style="stop-color:#FFF33B"/>
		<stop  offset="0.0595" style="stop-color:#FFE029"/>
		<stop  offset="0.1303" style="stop-color:#FFD218"/>
		<stop  offset="0.2032" style="stop-color:#FEC90F"/>
		<stop  offset="0.2809" style="stop-color:#FDC70C"/>
		<stop  offset="0.6685" style="stop-color:#F3903F"/>
		<stop  offset="0.8876" style="stop-color:#ED683C"/>
		<stop  offset="1" style="stop-color:#E93E3A"/>
	</linearGradient>
	<polygon display="inline" fill="url(#SVGID_3_)" stroke="url(#SVGID_4_)" stroke-miterlimit="10" points="1083.542,705.757 
		209,705.757 277.257,669.905 1139,669.905 	"/>
	<path display="inline" fill="#501115" stroke="#E52028" stroke-miterlimit="10" d="M902.963,763.857
		c0,1.156-0.007,2.319-0.021,3.471h-41.918c0-134.041-96.718-242.705-216.02-242.705c-119.311,0-216.021,108.664-216.021,242.705
		h-41.926c-0.014-1.151-0.021-2.314-0.021-3.471c0-160.068,115.493-289.828,257.968-289.828
		C787.472,474.029,902.963,603.789,902.963,763.857z"/>
	
		<linearGradient id="SVGID_5_" gradientUnits="userSpaceOnUse" x1="2285.6934" y1="557.7471" x2="2762.2856" y2="850.67" gradientTransform="matrix(-0.1844 -1.3942 1.6739 -0.2214 385.3779 5037.915)">
		<stop  offset="0" style="stop-color:#FFF33B"/>
		<stop  offset="0.0284" style="stop-color:#FFE029"/>
		<stop  offset="0.0622" style="stop-color:#FFD218"/>
		<stop  offset="0.0971" style="stop-color:#FEC90F"/>
		<stop  offset="0.1342" style="stop-color:#FDC70C"/>
		<stop  offset="0.4745" style="stop-color:#F3903F"/>
		<stop  offset="0.8876" style="stop-color:#ED683C"/>
		<stop  offset="1" style="stop-color:#E93E3A"/>
	</linearGradient>
	
		<linearGradient id="SVGID_6_" gradientUnits="userSpaceOnUse" x1="2220.7012" y1="770.3481" x2="3005.1719" y2="770.3481" gradientTransform="matrix(-0.1844 -1.3942 1.6739 -0.2214 385.3779 5037.915)">
		<stop  offset="0" style="stop-color:#FFF33B"/>
		<stop  offset="0.0595" style="stop-color:#FFE029"/>
		<stop  offset="0.1303" style="stop-color:#FFD218"/>
		<stop  offset="0.2032" style="stop-color:#FEC90F"/>
		<stop  offset="0.2809" style="stop-color:#FDC70C"/>
		<stop  offset="0.6685" style="stop-color:#F3903F"/>
		<stop  offset="0.8876" style="stop-color:#ED683C"/>
		<stop  offset="1" style="stop-color:#E93E3A"/>
	</linearGradient>
	<polygon display="inline" fill="url(#SVGID_5_)" stroke="url(#SVGID_6_)" stroke-miterlimit="10" points="1150.877,674.831 
		1282.664,1671.149 1234.999,1772.449 1094.939,713.587 	"/>
</g>
<g id="design2" display="none">
	<polygon display="inline" fill="#908AC3" points="1532.595,878.563 1167.856,1369.501 877.765,1278.683 	"/>
	<polygon display="inline" fill="#B2CFED" points="1324.339,1617.495 1163.649,1366.311 1533.297,879.095 	"/>
	
		<line display="inline" fill="#8E8AC2" stroke="#8E8AC2" stroke-width="40" stroke-miterlimit="10" x1="1059.762" y1="1392.364" x2="931.103" y2="1560.86"/>
	
		<line display="inline" fill="#B1CEEB" stroke="#B1CEEB" stroke-width="40" stroke-miterlimit="10" x1="1167.854" y1="1474.9" x2="1058.557" y2="1618.038"/>
	
		<line display="inline" fill="#8E8AC2" stroke="#8E8AC2" stroke-width="40" stroke-miterlimit="10" x1="1125.194" y1="1412.13" x2="880.013" y2="1733.226"/>
	
		<line display="inline" fill="none" stroke="#0E122E" stroke-width="2" stroke-miterlimit="10" x1="307" y1="2305" x2="2599" y2="2305"/>
</g>
<g id="design3" display="none">
	<g id="surface1_2_" display="inline">
		<path fill="#FBB682" d="M933.614,1260.715l-106.665-106.868v428.25h142.749v-234.611
			C969.698,1314.909,956.708,1283.68,933.614,1260.715z"/>
		<path fill="#DE4C3C" d="M461.675,1504.063l-80.637-209.333c-8.093-21.014,2.376-44.618,23.402-52.716l380.603-146.604
			c21.014-8.094,44.619,2.376,52.712,23.402l80.637,209.333c8.093,21.014-2.377,44.619-23.402,52.716l-380.591,146.604
			C493.373,1535.559,469.779,1525.077,461.675,1504.063z"/>
		<path fill="#7B4A31" d="M866.815,1194.224l-456.35,176.889l30.387,78.881l456.37-176.808L866.815,1194.224z"/>
		<path fill="#4498D2" d="M378.307,1357.775v-224.321c0-22.524,18.263-40.787,40.786-40.787h407.856
			c22.524,0,40.787,18.263,40.787,40.787v224.321c0,22.524-18.263,40.786-40.787,40.786H419.093
			C396.569,1398.562,378.307,1380.3,378.307,1357.775z"/>
		<path fill="#3F8DC8" d="M826.949,1092.667h-43.334l-305.895,305.894h349.229c22.524,0,40.787-18.262,40.787-40.786v-224.321
			C867.736,1110.93,849.474,1092.667,826.949,1092.667z"/>
		<path fill="#5FB3D1" d="M419.093,1255.81h40.786v20.393h-40.786V1255.81z"/>
		<path fill="#5FB3D1" d="M419.093,1316.989h40.786v20.393h-40.786V1316.989z"/>
		<path fill="#5FB3D1" d="M602.628,1316.989h40.786v20.393h-40.786V1316.989z"/>
		<path fill="#5FB3D1" d="M480.272,1255.81h40.782v20.393h-40.782V1255.81z"/>
		<path fill="#5FB3D1" d="M541.448,1255.81h40.786v20.393h-40.786V1255.81z"/>
		<path fill="#5FB3D1" d="M602.628,1255.81h40.786v20.393h-40.786V1255.81z"/>
		<path fill="#5FB3D1" d="M796.359,1133.454h20.394v30.59h-20.394V1133.454z"/>
		<path fill="#5FB3D1" d="M755.573,1133.454h20.394v30.59h-20.394V1133.454z"/>
		<path fill="#5FB3D1" d="M714.787,1133.454h20.393v30.59h-20.393V1133.454z"/>
		<path fill="#5FB3D1" d="M674.004,1133.454h20.39v30.59h-20.39V1133.454z"/>
		<path fill="#89B440" d="M786.163,1582.097h183.535v101.963H786.163V1582.097z"/>
		<path fill="#FBB682" d="M756.236,1276.866c-17.295-17.232-45.281-17.182-62.514,0.113c-16.663,16.721-17.24,43.588-1.315,61.016
			l83.56,91.156c-25.115,43.955-24.042,98.158,2.782,141.087l7.414,11.858h132.552v-142.748L756.236,1276.866z"/>
		<path fill="#6B973F" d="M816.753,1612.687h20.394v20.394h-20.394V1612.687z"/>
		<path fill="#FDB62D" d="M419.093,1198.712v-48.942c0-9.014,7.301-16.315,16.315-16.315h48.942c9.015,0,16.312,7.301,16.312,16.315
			v48.942c0,9.014-7.297,16.315-16.312,16.315h-48.942C426.394,1215.027,419.093,1207.726,419.093,1198.712z"/>
		<path fill="#F47B33" d="M419.093,1164.044h30.59v20.393h-30.59V1164.044z"/>
		<path fill="#F47B33" d="M470.076,1164.044h30.586v20.393h-30.586V1164.044z"/>
		<path fill="#F2A570" d="M908.519,1439.349c-2.7,0-5.3-1.073-7.208-2.989l-40.786-40.786c-3.914-4.047-3.801-10.502,0.258-14.419
			c3.957-3.813,10.216-3.813,14.161,0l40.787,40.786c3.976,3.988,3.976,10.442,0,14.419
			C913.811,1438.275,911.223,1439.349,908.519,1439.349z"/>
	</g>
</g>
<g id="design_4" display="none">
	<path display="inline" fill="#146BA9" d="M972.163,1429.766l37.767-241.146c3.927-24.471-12.724-47.496-37.196-51.435l0,0
		l-509.613-81.795c-24.471-3.927-47.495,12.724-51.421,37.194l-18.109,112.775v223.003L972.163,1429.766z"/>
	<path display="inline" fill="#13619A" d="M972.735,1137.185l-144.741-23.225c-97.212,148.747-254.364,251.771-374.881,314.548
		l519.049,1.258l37.767-241.146C1013.856,1164.147,997.206,1141.123,972.735,1137.185L972.735,1137.185z"/>
	<path display="inline" fill="#4498D2" d="M411.15,1194.139h516.131c24.786,0,44.881,20.095,44.881,44.88v291.728
		c0,24.785-20.096,44.881-44.881,44.881H411.15c-24.786-0.001-44.881-20.096-44.881-44.881V1239.02
		C366.269,1214.234,386.364,1194.139,411.15,1194.139z"/>
	<path display="inline" fill="#3F8DC8" d="M927.281,1194.139h-8.977c-105.919,188.041-303.833,317.028-424.653,381.488h433.629
		c24.786,0,44.881-20.095,44.881-44.881V1239.02C972.163,1214.234,952.067,1194.139,927.281,1194.139z"/>
	<rect x="422.37" y="1250.24" display="inline" fill="#FDB62D" width="112.203" height="89.762"/>
	<g display="inline">
		<rect x="422.37" y="1283.901" fill="#F47B33" width="33.661" height="22.44"/>
		<rect x="500.912" y="1283.901" fill="#F47B33" width="33.661" height="22.44"/>
	</g>
	<circle display="inline" fill="#FDB62D" cx="859.96" cy="1463.425" r="56.102"/>
	<circle display="inline" fill="#DE4C3C" cx="792.638" cy="1463.425" r="56.102"/>
	<g display="inline">
		<rect x="411.15" y="1418.543" fill="#88CDD8" width="67.321" height="22.44"/>
		<rect x="523.352" y="1418.543" fill="#88CDD8" width="67.321" height="22.44"/>
		<rect x="635.554" y="1418.543" fill="#88CDD8" width="67.321" height="22.44"/>
		<rect x="411.15" y="1485.865" fill="#88CDD8" width="291.727" height="22.441"/>
		<rect x="758.978" y="1250.24" fill="#88CDD8" width="22.44" height="44.881"/>
		<rect x="803.859" y="1250.24" fill="#88CDD8" width="22.44" height="44.881"/>
		<rect x="848.739" y="1250.24" fill="#88CDD8" width="22.44" height="44.881"/>
		<rect x="893.62" y="1250.24" fill="#88CDD8" width="22.44" height="44.881"/>
	</g>
</g>
<g id="design_5" display="none">
	<circle display="inline" fill="#FEDC00" cx="615.005" cy="1299.512" r="303.674"/>
	<path display="inline" fill="#FDC010" d="M645.677,1601.652c153.309-15.379,273.002-144.779,273.002-302.141
		c0-0.52-0.017-1.035-0.02-1.555l-107.061-107.061l-144.681,149.543l-194.632-196.916l-56.275,23.725l100.588,100.342
		l-21.497,175.273l36.902,36.199l-4.733,4.181L645.677,1601.652z"/>
	<polygon display="inline" fill="#068DC4" points="498.449,1388.6 784.795,1388.6 811.598,1190.896 471.646,1190.896 	"/>
	<polygon display="inline" fill="#0475A4" points="811.598,1190.896 614.835,1190.896 614.835,1388.6 784.795,1388.6 	"/>
	<polygon display="inline" fill="#068DC4" points="471.646,1190.896 498.449,1388.6 641.622,1388.6 641.622,1190.896 	"/>
	<polygon display="inline" fill="#43B5E8" points="509.877,1220.445 527.601,1358.869 557.583,1358.869 544.521,1220.445 	"/>
	<polygon display="inline" fill="#068DC4" points="738.724,1220.445 725.661,1358.869 755.644,1358.869 773.367,1220.445 	"/>
	<polygon display="inline" fill="#43B5E8" points="584.406,1220.445 592.824,1358.869 619.955,1358.869 615.753,1220.445 	"/>
	<polygon display="inline" fill="#068DC4" points="667.489,1220.445 663.289,1358.869 690.419,1358.869 698.838,1220.445 	"/>
	<circle display="inline" fill="#0B1720" cx="734.398" cy="1460.068" r="29.063"/>
	<circle display="inline" fill="#00263F" cx="544.792" cy="1460.068" r="29.063"/>
	<polygon display="inline" fill="#015D84" points="781,1442.863 495.101,1442.863 451.984,1167.248 416.01,1167.248 
		416.01,1143.523 472.285,1143.523 515.402,1419.139 781,1419.139 	"/>
	<rect x="641.624" y="1419.143" display="inline" fill="#00263F" width="139.381" height="23.725"/>
</g>
<g id="Design_6" display="none">
	<g display="inline">
		<path fill="#F16479" d="M828.676,1072.406l-42.43-42.43c-5.857-5.858-15.354-5.858-21.213,0l-107.479,107.479
			c-5.857,5.857-5.857,15.354,0,21.213l42.43,42.43c5.854,5.854,15.354,5.856,21.213,0l107.479-107.479
			C834.53,1087.764,834.533,1078.263,828.676,1072.406z"/>
		<path fill="#E92082" d="M871.098,1136.041L763.62,1243.52c-5.822,5.824-15.336,5.883-21.22,0l-42.419-42.42l128.698-128.698
			l42.419,42.42C876.949,1120.681,876.949,1130.181,871.098,1136.041z"/>
		<path fill="#CCDD49" d="M756.16,1192.91c0,8.279-6.72,15-14.999,15H565.163c-8.28,0-15-6.721-15-15
			c0-56.459,45.669-102.449,101.998-102.989C705.991,1088.29,756.16,1133.6,756.16,1192.91z"/>
		<path fill="#51BB79" d="M756.16,1192.91c0,8.279-6.72,15-14.999,15h-89v-117.989C705.991,1088.29,756.16,1133.6,756.16,1192.91z"
			/>
		<path fill="#F1F1F8" d="M875.708,1196.551l-47.999,191.997c-1.67,6.68-7.67,11.36-14.55,11.36H485.003
			c-7.091,0-13.22-4.971-14.681-11.91L429.904,1196c-1.966-9.346,5.187-18.09,14.68-18.09h416.575
			C870.881,1177.91,878.081,1187.061,875.708,1196.551L875.708,1196.551z"/>
		<path fill="#D8D6EB" d="M875.708,1196.551l-47.999,191.997c-1.67,6.68-7.67,11.36-14.55,11.36H652.161V1177.91h208.998
			C870.881,1177.91,878.081,1187.061,875.708,1196.551L875.708,1196.551z"/>
		<path fill="#D8D6EB" d="M861.159,1177.91H448.583c-9.514,0-16.642,8.764-14.68,18.09c3.928,18.663,36.49,173.334,40.419,191.998
			c1.461,6.939,7.59,11.91,14.68,11.91H813.16c6.88,0,12.88-4.681,14.55-11.36l47.999-191.997
			C878.085,1187.039,870.863,1177.91,861.159,1177.91z M470.233,1241.91l-7.16-34h49.02l5.7,34H470.233z M483.704,1305.908
			l-7.16-33.999h46.279l5.699,33.999H483.704z M497.172,1369.908l-7.159-34h43.54l5.699,34H497.172z M542.512,1207.91h48.279
			l2.83,34h-45.409L542.512,1207.91z M553.243,1271.909h42.879l2.84,33.999h-40.02L553.243,1271.909z M569.672,1369.908l-5.7-34
			h37.489l2.83,34H569.672z M669.601,1369.908h-35.21l-2.83-34h40.87L669.601,1369.908z M674.931,1305.908h-45.87l-2.84-33.999
			h51.55L674.931,1305.908z M680.271,1241.91h-56.55l-2.83-34h62.21L680.271,1241.91z M734.321,1369.908h-34.61l2.83-34h37.479
			L734.321,1369.908z M745.05,1305.908h-40.01l2.84-33.999h42.88L745.05,1305.908z M755.79,1241.91H710.38l2.83-34h48.279
			L755.79,1241.91z M800.45,1369.908h-35.71l5.7-34h38.51L800.45,1369.908z M816.45,1305.908h-40.98l5.7-33.999h43.78
			L816.45,1305.908z M832.449,1241.91H786.2l5.7-34h49.049L832.449,1241.91z"/>
		<path fill="#A1A1CC" d="M861.159,1177.91H652.161v30h30.94l-2.83,34h-28.11v29.999h25.61l-2.84,33.999h-22.771v30h20.271l-2.83,34
			h-17.44v30H813.16c6.88,0,12.88-4.681,14.55-11.36l47.999-191.997C878.085,1187.039,870.863,1177.91,861.159,1177.91z
			 M734.321,1369.908h-34.61l2.83-34h37.479L734.321,1369.908z M745.05,1305.908h-40.01l2.84-33.999h42.88L745.05,1305.908z
			 M755.79,1241.91H710.38l2.83-34h48.279L755.79,1241.91z M800.45,1369.908h-35.71l5.7-34h38.51L800.45,1369.908z M816.45,1305.908
			h-40.98l5.7-33.999h43.78L816.45,1305.908z M832.449,1241.91H786.2l5.7-34h49.049L832.449,1241.91z"/>
		<path fill="#C8C7E4" d="M803.16,1456.907c0,8.28-6.72,15-15,15H500.163c-7.09,0-13.22-4.97-14.68-11.91l-61.489-292.087h-44.829
			c-8.28,0-15-6.72-15-15c0-8.279,6.72-15,15-15h56.999c7.09,0,13.22,4.971,14.68,11.91l61.489,292.087H788.16
			C796.44,1441.907,803.16,1448.627,803.16,1456.907z"/>
		<path fill="#A1A1CC" d="M803.16,1456.907c0,8.28-6.72,15-15,15H652.161v-30H788.16
			C796.44,1441.907,803.16,1448.627,803.16,1456.907z"/>
		<circle fill="#A1A1CC" cx="500.163" cy="1488.907" r="47"/>
		<circle fill="#9797C2" cx="789.16" cy="1488.907" r="47"/>
	</g>
</g>
<g id="Design_7" display="none">
	<circle display="inline" fill="#FFFFFF" cx="669.065" cy="1275.289" r="334.901"/>
	<g id="gradient" display="inline">
		
			<linearGradient id="SVGID_7_" gradientUnits="userSpaceOnUse" x1="-926.6943" y1="1922.9736" x2="-625.6222" y2="2224.0457" gradientTransform="matrix(-1 0 0 -1 -109.8184 3308)">
			<stop  offset="0" style="stop-color:#65C7C2"/>
			<stop  offset="1" style="stop-color:#CE8CBD"/>
		</linearGradient>
		<path fill="url(#SVGID_7_)" d="M704.78,1417.268c0-11.955-9.691-21.646-21.646-21.646s-21.646,9.691-21.646,21.646
			c0,11.954,9.691,21.645,21.646,21.645C695.083,1438.899,704.768,1429.217,704.78,1417.268z M690.351,1417.268
			c0,3.983-3.231,7.215-7.216,7.215s-7.215-3.231-7.215-7.215c0-3.984,3.23-7.216,7.215-7.216
			C687.118,1410.057,690.346,1413.284,690.351,1417.268z M546.047,1417.268c0-11.955-9.691-21.646-21.646-21.646
			s-21.646,9.691-21.646,21.646c0,11.954,9.691,21.645,21.646,21.645C536.35,1438.899,546.033,1429.217,546.047,1417.268z
			 M531.616,1417.268c0,3.983-3.23,7.215-7.215,7.215c-3.985,0-7.216-3.231-7.216-7.215c0-3.984,3.23-7.216,7.216-7.216
			C528.384,1410.057,531.611,1413.284,531.616,1417.268z M879.795,1063.482c3.86-0.995,6.181-4.929,5.188-8.788
			c-0.994-3.859-4.928-6.181-8.788-5.187l-72.919,18.23c-11.25,2.799-19.142,12.907-19.128,24.499v43.638H472.091
			c-10.954,0.012-19.83,8.889-19.842,19.841v106.98c0.032,9.387,6.611,17.479,15.794,19.425l316.104,65.854v40.431
			c-0.014,11.949-9.697,21.632-21.646,21.646h-36.689c-3.068-18.171-17.304-32.407-35.475-35.474
			c-23.571-3.98-45.905,11.902-49.884,35.474h-72.762c-0.204,0-0.407,0.014-0.607,0.031c-3.057-18.184-17.297-32.434-35.477-35.504
			c-23.571-3.98-45.906,11.901-49.886,35.473h-22.258c-3.984,0-7.215,3.231-7.215,7.216c0,3.983,3.23,7.215,7.215,7.215h22.258
			c3.07,18.181,17.321,32.42,35.503,35.478c23.574,3.963,45.897-11.935,49.86-35.509c0.2,0.018,0.403,0.031,0.607,0.031h72.765
			c3.391,19.907,20.076,34.839,40.236,36.006c0.826,0.047,1.65,0.07,2.468,0.07c21.102-0.043,39.108-15.273,42.652-36.076h36.688
			c19.915-0.021,36.052-16.161,36.076-36.076v-39.734c8.54-2.415,14.434-10.211,14.431-19.084V1143.09
			c0-3.984-3.231-7.215-7.216-7.215h-7.215v-43.638c-0.005-4.969,3.377-9.301,8.198-10.5l72.919-18.23
			C879.728,1063.499,879.762,1063.49,879.795,1063.482z M553.262,1417.268c0,15.938-12.921,28.86-28.86,28.86
			c-15.94,0-28.861-12.922-28.861-28.86c0-15.939,12.921-28.861,28.861-28.861C540.333,1388.424,553.244,1401.335,553.262,1417.268z
			 M711.95,1418.895L711.95,1418.895L711.95,1418.895c-0.9,15.916-14.53,28.087-30.445,27.188
			c-15.913-0.9-28.085-14.529-27.185-30.443c0.9-15.915,14.529-28.086,30.444-27.187
			C700.669,1389.37,712.83,1402.988,711.95,1418.895z M798.578,1150.305v28.861h-28.86v-28.861H798.578z M466.679,1193.597h28.861
			v28.86h-28.861V1193.597z M466.679,1236.888h28.861v28.86h-27.888c-0.626-0.895-0.967-1.958-0.973-3.052V1236.888z
			 M639.844,1303.177v-22.998h28.861v28.86c-0.19,0-0.376,0.015-0.563,0.028L639.844,1303.177z M769.718,1330.233v-6.764h28.86
			v6.118c0,0.369-0.038,0.739-0.113,1.102c-0.608,2.926-3.475,4.804-6.401,4.195l0,0L769.718,1330.233z M553.262,1236.888h28.86
			v28.86h-28.86V1236.888z M538.831,1265.748H509.97v-28.86h28.861V1265.748z M769.718,1236.888h28.86v28.86h-28.86V1236.888z
			 M755.287,1265.748h-28.861v-28.86h28.861V1265.748z M798.578,1280.179v28.86h-28.86v-28.86H798.578z M755.287,1309.039h-28.861
			v-28.86h28.861V1309.039z M711.996,1309.039h-28.861v-28.86h28.861V1309.039z M683.135,1265.748v-28.86h28.861v28.86H683.135z
			 M668.705,1265.748h-28.861v-28.86h28.861V1265.748z M625.414,1265.748h-28.86v-28.86h28.86V1265.748z M553.262,1222.457v-28.86
			h28.86v28.86H553.262z M596.553,1193.597h28.86v28.86h-28.86V1193.597z M639.844,1193.597h28.861v28.86h-28.861V1193.597z
			 M683.135,1193.597h28.861v28.86h-28.861V1193.597z M726.426,1193.597h28.861v28.86h-28.861V1193.597z M769.718,1193.597h28.86
			v28.86h-28.86V1193.597z M755.287,1327.223l-18.015-3.753h18.015V1327.223z M625.414,1300.17l-28.86-6.012v-13.979h28.86V1300.17z
			 M582.122,1291.15l-28.86-6.012v-4.96h28.86V1291.15z M538.831,1282.128l-9.356-1.949h9.356V1282.128z M509.97,1193.597h28.861
			v28.86H509.97V1193.597z M509.97,1179.166v-28.861h28.861v28.861H509.97z M553.262,1150.305h28.86v28.861h-28.86V1150.305z
			 M596.553,1150.305h28.86v28.861h-28.86V1150.305z M639.844,1150.305h28.861v28.861h-28.861V1150.305z M683.135,1150.305h28.861
			v28.861h-28.861V1150.305z M726.426,1150.305h28.861v28.861h-28.861V1150.305z M472.091,1150.305h23.449v28.861h-28.861v-23.45
			C466.682,1152.729,469.103,1150.309,472.091,1150.305z"/>
	</g>
</g>
<g id="Layer_19" display="none">
	<circle display="inline" fill="#FFFFFF" cx="645" cy="1327.29" r="312.937"/>
	<path display="inline" fill="#6870B5" d="M751.553,1447.079H526.741c-5.225,0-9.758-3.606-10.933-8.697l-56.684-245.633h-39.696
		c-6.196,0-11.22-5.024-11.22-11.22s5.024-11.221,11.22-11.221h48.622c5.226,0,9.758,3.606,10.933,8.697l56.685,245.633h215.886
		c6.197,0,11.22,5.024,11.22,11.221C762.774,1442.055,757.75,1447.079,751.553,1447.079z"/>
	<path display="inline" fill="#4B89C8" d="M794.726,1219.4c-2.13-2.662-5.354-4.211-8.762-4.211H478.407
		c-3.419,0-6.652,1.559-8.781,4.236c-2.129,2.676-2.921,6.176-2.152,9.508l34.524,149.605c1.176,5.092,5.709,8.697,10.933,8.697
		h239.371c5.248,0,9.795-3.637,10.947-8.757l33.662-149.606C797.658,1225.547,796.854,1222.063,794.726,1219.4z"/>
	<path display="inline" fill="#6870B5" d="M572.774,1462.039c-22.686,0-41.142,18.457-41.142,41.143s18.456,41.142,41.142,41.142
		s41.142-18.456,41.142-41.142S595.46,1462.039,572.774,1462.039z"/>
	<g display="inline">
		<path fill="#5461AC" d="M707.42,1462.039c-22.686,0-41.142,18.457-41.142,41.143s18.456,41.142,41.142,41.142
			c22.685,0,41.142-18.456,41.142-41.142S730.105,1462.039,707.42,1462.039z"/>
		<path fill="#5461AC" d="M751.553,1424.639H602.695v22.44h148.858c6.197,0,11.22-5.024,11.22-11.22
			C762.774,1429.662,757.75,1424.639,751.553,1424.639z"/>
	</g>
	<path display="inline" fill="#337BC0" d="M785.963,1215.189H602.695v172.047h149.606c5.248,0,9.795-3.637,10.947-8.757
		l33.662-149.606c0.749-3.326-0.056-6.811-2.185-9.473C792.595,1216.738,789.372,1215.189,785.963,1215.189z"/>
</g>
<g id="Layer_8" display="none">
	<rect x="1301.847" y="1154.354" display="inline" fill="none" width="2278.153" height="417.774"/>
	<text transform="matrix(1 0 0 1 1301.8467 1450.4473)" display="inline"><tspan x="0" y="0" fill="#415BA9" font-family="'SegoeUI-Bold'" font-size="400">Umoja</tspan><tspan x="1229.102" y="0" fill="#ECA521" font-family="'SegoeUI-Bold'" font-size="400">Shop</tspan></text>
</g>
<g id="Layer_9" display="none">
	<g display="inline">
		<g>
			<path fill="#F05E7E" d="M1290.75,1092.996c16.913,0,30.75-13.837,30.75-30.75v-29.248l22.501-80.003h-54L1260,1032.999v29.248
				c0,15.298,11.322,28.08,26,30.381C1287.549,1092.87,1289.135,1092.996,1290.75,1092.996z"/>
			<path fill="#FEC145" d="M1321.5,1062.247c0,16.912,13.837,30.75,30.75,30.75s30.75-13.837,30.75-30.75v-29.248l15.001-80.003h-54
				l-22.501,80.003V1062.247z"/>
			<path fill="#F05E7E" d="M1383,1062.247c0,16.912,13.837,30.75,30.75,30.75c16.912,0,30.75-13.837,30.75-30.75v-29.248l7.5-80.003
				h-54l-15,80.003V1062.247z"/>
			<path fill="#FEC145" d="M1444.5,1062.247c0,16.912,13.837,30.75,30.75,30.75c16.912,0,30.75-13.837,30.75-30.75V952.996h-54
				l-7.5,80.003V1062.247z"/>
			<path fill="#F05E7E" d="M1506,952.996v109.251c0,16.912,13.837,30.75,30.75,30.75s30.75-13.837,30.75-30.75v-29.248l-7.5-80.003
				H1506z"/>
			<path fill="#FEC145" d="M1560,952.996l7.5,80.003v29.248c0,16.912,13.837,30.75,30.75,30.75s30.75-13.837,30.75-30.75v-29.248
				l-15.001-80.003H1560z"/>
			<path fill="#F05E7E" d="M1613.999,952.996l15.001,80.003v29.248c0,16.912,13.837,30.75,30.75,30.75
				c16.912,0,30.75-13.837,30.75-30.75v-29.248l-22.501-80.003H1613.999z"/>
			<path fill="#FEC145" d="M1667.999,952.996l22.501,80.003v29.248c0,16.912,13.837,30.75,30.75,30.75
				c1.615,0,3.201-0.126,4.75-0.369c14.678-2.301,26-15.083,26-30.381v-29.248l-30.001-80.003H1667.999z"/>
			<path fill="#FFFFFF" d="M1690.5,1062.247c0,16.912-13.838,30.75-30.75,30.75c-16.913,0-30.75-13.837-30.75-30.75
				c0,16.912-13.838,30.75-30.75,30.75c-16.913,0-30.75-13.837-30.75-30.75c0,16.912-13.837,30.75-30.75,30.75
				s-30.75-13.837-30.75-30.75c0,16.912-13.838,30.75-30.75,30.75c-16.913,0-30.75-13.837-30.75-30.75
				c0,16.912-13.838,30.75-30.75,30.75c-16.913,0-30.75-13.837-30.75-30.75c0,16.912-13.837,30.75-30.75,30.75
				s-30.75-13.837-30.75-30.75c0,16.912-13.837,30.75-30.75,30.75c-1.615,0-3.201-0.126-4.75-0.37v180.377h362.977l-11.394-30.885
				c-1.767-5.322,3.36-10.334,8.613-8.551l79.804,29.426v-170.368c-1.549,0.243-3.135,0.369-4.75,0.369
				C1704.337,1092.996,1690.5,1079.159,1690.5,1062.247L1690.5,1062.247z"/>
			<path fill="#E4EAEF" d="M1726,1262.994l-79.805-29.426c-5.252-1.783-10.381,3.229-8.613,8.551l11.395,30.885l14.758,40
				l7.403,20.068c1.643,5.826,8.05,6.67,11.448,3.271l14.447-14.447l24.079,24.08c2.659,2.658,6.971,2.658,9.63,0l19.262-19.264
				c2.659-2.66,2.659-6.971,0-9.631l-24.079-24.078l14.447-14.447c3.521-3.516,2.158-9.645-2.688-11.254L1726,1262.994z"/>
			<path fill="#A7BDCD" d="M1663.734,1313.004l-14.758-40H1286v20c0,11,9,20,20,20h154.614h80.771H1663.734L1663.734,1313.004z"/>
			<path fill="#6D91AD" d="M1551,1393.004l-9.615-80h-80.771l-9.614,80H1551z"/>
		</g>
		<g>
			<path fill="#064E6E" d="M1762,1062.246v-29.248c0-1.199-0.216-2.389-0.637-3.511l-30.001-80.003
				c-1.464-3.903-5.195-6.489-9.363-6.489h-431.998c-4.168,0-7.899,2.586-9.362,6.489l-30.002,80.004
				c-0.421,1.122-0.637,2.312-0.637,3.511v29.248c0,17.268,10.802,32.052,26,37.975v192.783c0,16.541,13.458,30,30,30h143.375
				l-7.283,60H1411c-5.523,0-10,4.479-10,10c0,5.523,4.477,10,10,10h180c5.523,0,10-4.477,10-10c0-5.521-4.477-10-10-10h-31.092
				l-7.283-60h104.14l4.882,13.229c1.785,5.779,6.183,10.086,11.844,11.564c5.764,1.504,11.959-0.176,16.167-4.383l7.376-7.375
				l17.008,17.008c3.175,3.174,7.396,4.922,11.886,4.922c4.49,0,8.711-1.748,11.886-4.922l19.265-19.264
				c6.552-6.555,6.552-17.219-0.001-23.773l-17.008-17.008l7.371-7.369c4.142-4.135,5.807-10.02,4.455-15.74
				c-1.336-5.65-5.392-10.129-10.868-12.018l-5.026-1.852v-155.802C1751.198,1094.297,1762,1079.515,1762,1062.246z M1742,1034.812
				v27.434c0,11.441-9.309,20.75-20.75,20.75s-20.75-9.308-20.75-20.75v-29.248c0-0.916-0.125-1.826-0.374-2.708l-18.927-67.296
				h33.87L1742,1034.812z M1331.5,1034.378l20.077-71.383h34.375l-12.78,68.161c-0.113,0.607-0.171,1.225-0.171,1.843v29.248
				c0,11.441-9.31,20.75-20.75,20.75s-20.75-9.308-20.75-20.75L1331.5,1034.378L1331.5,1034.378z M1393,1033.927l13.3-70.933h34.72
				l-6.476,69.07c-0.028,0.311-0.043,0.622-0.043,0.934v29.248c0,11.441-9.31,20.75-20.75,20.75s-20.751-9.309-20.751-20.751
				V1033.927z M1454.5,1033.465l6.607-70.471H1496v99.251c0,11.441-9.309,20.75-20.75,20.75s-20.75-9.308-20.75-20.75V1033.465z
				 M1516,962.995h34.893l6.607,70.471v28.78c0,11.441-9.309,20.75-20.75,20.75s-20.75-9.308-20.75-20.75V962.995z
				 M1577.457,1032.064l-6.475-69.07h34.718l13.3,70.933v28.318c0,11.441-9.309,20.75-20.75,20.75s-20.75-9.308-20.75-20.75v-29.248
				C1577.5,1032.687,1577.484,1032.375,1577.457,1032.064L1577.457,1032.064z M1638.829,1031.156l-12.78-68.161h34.375
				l20.077,71.383v27.868c0,11.441-9.309,20.75-20.75,20.75c-11.44,0-20.751-9.308-20.751-20.75v-29.248
				C1639,1032.38,1638.943,1031.763,1638.829,1031.156z M1270,1034.812l26.932-71.817h33.869l-18.927,67.296
				c-0.248,0.881-0.374,1.792-0.374,2.708v29.248c0,11.441-9.309,20.75-20.75,20.75s-20.75-9.309-20.75-20.751V1034.812z
				 M1539.761,1383.004h-77.521l7.282-60h62.957L1539.761,1383.004z M1740.679,1321.898l-14.751,14.75l-21.822-21.824
				c-1.953-1.953-4.513-2.928-7.071-2.928c-2.56,0-5.119,0.977-7.071,2.928l-10.882,10.883l-29.616-80.277l80.288,29.605
				l-10.897,10.895c-1.875,1.875-2.929,4.42-2.929,7.072s1.054,5.195,2.929,7.07L1740.679,1321.898z M1649.654,1224.186
				c-0.081-0.029-0.163-0.059-0.245-0.088c-6.063-2.057-12.66-0.523-17.216,4.002c-4.547,4.518-6.118,11.096-4.103,17.17
				c0.035,0.104,0.071,0.207,0.109,0.309l6.428,17.424h-88.633c-5.522,0-10,4.477-10,10s4.478,10,10,10h96.011l7.379,20H1306
				c-5.514,0-10-4.486-10-10v-10h159.996c5.523,0,10-4.477,10-10s-4.477-10-10-10H1296v-160.356c10.13-1.31,19.109-6.34,25.5-13.688
				c7.477,8.596,18.489,14.038,30.75,14.038s23.273-5.442,30.75-14.038c7.477,8.596,18.489,14.038,30.75,14.038
				s23.273-5.442,30.75-14.038c7.477,8.596,18.489,14.038,30.75,14.038s23.273-5.442,30.75-14.038
				c7.477,8.596,18.489,14.038,30.75,14.038s23.273-5.442,30.75-14.038c7.477,8.596,18.489,14.038,30.75,14.038
				s23.273-5.442,30.75-14.038c7.477,8.596,18.489,14.038,30.75,14.038s23.273-5.442,30.75-14.038
				c6.391,7.348,15.37,12.378,25.5,13.688v146.003L1649.654,1224.186z"/>
			<path fill="#9ED8F6" d="M1521,1132.999c-5.523,0-10,4.477-10,10V1203c0,5.514-4.486,10-10,10s-10-4.486-10-10v-60.001
				c0-5.523-4.477-10-10-10s-10,4.477-10,10V1203c0,16.542,13.458,30,30,30s30-13.459,30-30v-60.001
				C1531,1137.476,1526.521,1132.999,1521,1132.999z"/>
			<path fill="#EE2148" d="M1425.999,1132.999h-20c-5.522,0-10,4.477-10,10v80c0,5.523,4.478,10,10,10h20c16.542,0,30-13.457,30-30
				c0-7.676-2.897-14.688-7.657-20c4.76-5.312,7.657-12.324,7.657-20C1455.998,1146.457,1442.541,1132.999,1425.999,1132.999z
				 M1425.999,1152.999c5.514,0,10,4.486,10,10c0,5.514-4.486,10-10,10h-10v-20H1425.999z M1425.999,1213h-10v-20h10
				c5.514,0,10,4.486,10,10C1435.999,1208.514,1431.512,1213,1425.999,1213z"/>
			<path fill="#5264AE" d="M1596.001,1132.999c-5.522,0-10,4.477-10,10v28.625c0,5.514-4.485,10-10,10c-5.514,0-10-4.486-10-10
				v-28.625c0-5.523-4.478-10-10-10s-10,4.477-10,10v28.625c0,13.036,8.361,24.151,20,28.28V1223c0,5.523,4.478,10,10,10
				s10-4.477,10-10v-23.096c11.64-4.129,20-15.243,20-28.28v-28.625C1606.001,1137.476,1601.523,1132.999,1596.001,1132.999z"/>
			<path fill="#044056" d="M1501,1263.002h-0.007c-5.523,0-9.996,4.479-9.996,10c0,5.523,4.479,10,10.003,10s10-4.477,10-10
				C1511,1267.48,1506.521,1263.002,1501,1263.002z"/>
		</g>
	</g>
</g>
<g id="Layer_10" display="none">
	<g id="Online_Shopping-Shopping-Smartphone-Shopping_Bag-Commerce" display="inline">
		<path fill="#60A8DC" d="M1557.003,931v288c0,26.51-21.49,48-48,48h-160c-17.154-0.011-33.004-9.155-41.6-24v-0.08
			c-4.211-7.268-6.419-15.521-6.4-23.92V931c0-26.51,21.49-48,48-48h160c25.104,0.013,45.957,19.367,47.84,44.4
			C1556.923,928.6,1557.003,929.8,1557.003,931z"/>
		<path fill="#4899D3" d="M1557.003,949v219.92c-12.863-5.576-24.644-13.375-34.8-23.04l-56.24,10.479l29.12-49.279
			c-26.568-60.716,1.115-131.474,61.83-158.041C1556.944,949.026,1556.974,949.013,1557.003,949z"/>
		<path fill="#FFD421" d="M1707.164,1063.8c-11.499,65.251-73.705,108.834-138.96,97.36c-3.778-0.646-7.517-1.5-11.2-2.561
			c-19.048-5.225-36.502-15.092-50.8-28.72l-56.24,10.479l29.12-49.279c-26.566-60.692,1.1-131.43,61.792-157.996
			c21.661-9.481,45.642-12.35,68.928-8.245C1675.054,936.339,1718.637,998.545,1707.164,1063.8z"/>
		<path fill="#EABF1E" d="M1637.003,1043h-16v-40c0-8.836-7.164-16-16-16s-16,7.164-16,16v40h-16v-40c0-17.673,14.327-32,32-32
			s32,14.327,32,32V1043z"/>
		<path fill="#EABF1E" d="M1549.003,1019v96c0.026,8.826,7.174,15.974,16,16h80c8.826-0.026,15.974-7.174,16-16v-96H1549.003z"/>
		<path fill="#D2D3D4" d="M1645.003,1083v16c-0.026,8.826-7.174,15.974-16,16h-80c-8.826-0.026-15.974-7.174-16-16v-16H1645.003z"/>
		<path fill="#4899D3" d="M1533.003,1003h112v80h-112V1003z"/>
		<path fill="#E7E7E7" d="M1445.003,1203c8.826,0.026,15.974,7.174,16,16c-0.065,8.81-7.19,15.935-16,16h-32
			c-8.826-0.026-15.974-7.174-16-16c0.065-8.81,7.19-15.935,16-16H1445.003z"/>
		<path fill="#E7E7E7" d="M1404.204,1208.68c0,4.211-1.104,8.349-3.2,12l-2.641,4.641c-0.9-1.985-1.364-4.141-1.359-6.32
			c-0.022-4.245,1.682-8.316,4.72-11.28c0.716-0.73,1.491-1.399,2.32-2C1404.124,1206.68,1404.204,1207.72,1404.204,1208.68z"/>
		<path fill="#4899D3" d="M1403.644,1020.36c12.539,12.504,12.566,32.806,0.063,45.345c-12.505,12.539-32.807,12.567-45.346,0.063
			s-12.567-32.806-0.063-45.345c6.016-6.033,14.186-9.423,22.705-9.423C1389.489,1011.015,1397.625,1014.379,1403.644,1020.36z"/>
		<path fill="#FFD421" d="M1387.644,1004.36c12.539,12.504,12.566,32.806,0.063,45.345c-12.505,12.539-32.807,12.567-45.346,0.063
			s-12.567-32.806-0.063-45.345c6.016-6.033,14.186-9.423,22.705-9.423C1373.489,995.015,1381.625,998.379,1387.644,1004.36z"/>
		<path fill="#FDC478" d="M1388.204,1192.68c0.015-13.255-10.719-24.012-23.974-24.026c-8.595-0.01-16.539,4.577-20.826,12.026
			l-36,62.24c-4.211-7.268-6.419-15.521-6.4-23.92v-127.84c-5.391,0.747-10.031,4.183-12.32,9.12l-36.32,78.8
			c-4.859,10.478-7.371,21.891-7.359,33.439V1355l128-0.08v-34.72c-0.018-8.711-2.395-17.253-6.88-24.72l-17.12-28.48l36-62.32
			C1387.1,1201.028,1388.204,1196.891,1388.204,1192.68z"/>
		<path fill="#4899D3" d="M1365.003,907h16v16h-16V907z"/>
		<path fill="#4899D3" d="M1397.003,907h64v16h-64V907z"/>
		<path fill="#2C80C3" d="M1621.003,1027h-16v-40c0-8.836-7.164-16-16-16s-16,7.164-16,16v40h-16v-40c0-17.673,14.327-32,32-32
			s32,14.327,32,32V1027z"/>
		<path fill="#EC2227" d="M1351.317,1029.342l47.991-47.991l11.313,11.312l-47.992,47.991L1351.317,1029.342z"/>
		<g>
			<path fill="#2C80C3" d="M1421.003,1003h32v16h-32V1003z"/>
			<path fill="#2C80C3" d="M1421.003,1035h32v16h-32V1035z"/>
		</g>
	</g>
</g>
<g id="Layer_11" display="none">
	<path display="inline" fill="#F9A121" d="M2202.84,1096.25c-20.568,0-41.091,2.045-61.242,6.123
		c-15.197-75.85-64.329-140.549-133.313-175.569c-68.97-35.021-150.201-36.49-220.407-3.996
		c-63.534-175.004-256.907-265.364-431.911-201.829c-175.005,63.533-265.368,256.92-201.831,431.913
		c-153.302,4.847-274.399,131.736-272.106,285.091c2.307,153.368,127.165,276.553,280.547,276.8H2202.84
		c170.79,0,309.267-138.463,309.267-309.267C2512.106,1234.711,2373.63,1096.25,2202.84,1096.25z"/>
</g>
<g id="Layer_12" display="none">
	<path display="inline" fill="#6870B5" d="M1885.482,1514.277h-415.576c-9.659,0-18.038-6.668-20.21-16.078l-104.784-454.064h-73.38
		c-11.454,0-20.741-9.287-20.741-20.741s9.287-20.743,20.741-20.743h89.88c9.659,0,18.038,6.667,20.21,16.078l104.784,454.064
		h399.076c11.455,0,20.741,9.287,20.741,20.741C1906.226,1504.99,1896.938,1514.277,1885.482,1514.277z"/>
	<path display="inline" fill="#4B89C8" d="M1965.287,1093.402c-3.936-4.919-9.895-7.783-16.196-7.783h-568.532
		c-6.321,0-12.297,2.882-16.232,7.829c-3.936,4.948-5.4,11.417-3.979,17.577l63.82,276.554c2.173,9.411,10.553,16.077,20.21,16.077
		h442.487c9.702,0,18.107-6.725,20.236-16.188l62.225-276.554C1970.71,1104.764,1969.224,1098.323,1965.287,1093.402z"/>
	<path display="inline" fill="#6870B5" d="M1555,1541.932c-41.935,0-76.053,34.117-76.053,76.053s34.117,76.053,76.053,76.053
		s76.053-34.117,76.053-76.053C1631.053,1576.05,1596.936,1541.932,1555,1541.932z"/>
	<g display="inline">
		<path fill="#5461AC" d="M1803.899,1541.932c-41.935,0-76.053,34.117-76.053,76.053s34.116,76.053,76.053,76.053
			c41.935,0,76.053-34.117,76.053-76.053C1879.952,1576.05,1845.836,1541.932,1803.899,1541.932z"/>
		<path fill="#5461AC" d="M1885.482,1472.794h-275.171v41.483h275.171c11.455,0,20.741-9.287,20.741-20.742
			C1906.226,1482.08,1896.938,1472.794,1885.482,1472.794z"/>
	</g>
	<path display="inline" fill="#337BC0" d="M1949.091,1085.617h-338.779v318.038h276.554c9.702,0,18.107-6.725,20.236-16.188
		l62.225-276.554c1.386-6.149-0.102-12.59-4.039-17.511C1961.35,1088.48,1955.393,1085.617,1949.091,1085.617z"/>
</g>
<g id="Creon_backgnd" display="none">
	<rect x="43" y="61" display="inline" width="3464" height="2268"/>
</g>
<g id="Creon1" display="none">
	<rect x="1595.579" y="817.469" display="inline" fill="none" width="1816.386" height="472.911"/>
	
		<text transform="matrix(1 0 0 1 1595.5791 1133.9834)" display="inline" fill="#FFFFFF" font-family="'SegoeUI-Bold'" font-size="427.5862">CREONS</text>
	<rect x="1620.544" y="1503.594" display="inline" fill="none" width="1735.421" height="352.33"/>
	<text transform="matrix(1 0 0 1 1620.5439 1616.584)"><tspan x="0" y="0" display="inline" font-family="'Shruti'" font-size="171.0345">Architecture  </tspan><tspan x="976.601" y="0" display="inline" font-family="'Shruti'" font-size="120.03">&amp; </tspan><tspan x="1110.931" y="0" display="inline" font-family="'Shruti'" font-size="171.0345"> Design </tspan></text>
	
		<line display="inline" fill="none" stroke="#FEFFFF" stroke-width="20" stroke-miterlimit="10" x1="1475" y1="525" x2="1475" y2="2013"/>
</g>
<g id="creon1A" display="none">
	<rect x="1694.544" y="1484.314" display="inline" fill="none" width="1572.456" height="352.33"/>
	<text transform="matrix(1 0 0 1 1694.5439 1605.9092)" display="inline"><tspan x="0" y="0" fill="#FFFFFF" font-family="'MS-PMincho'" font-size="171.0345">Architecture </tspan><tspan x="944.698" y="0" fill="#FFFFFF" font-family="'MS-PMincho'" font-size="120.03">&amp; </tspan><tspan x="1054.882" y="0" fill="#FFFFFF" font-family="'MS-PMincho'" font-size="171.0345">Design </tspan></text>
</g>
<g id="creon2" display="none">
	<path display="inline" fill="#DAF0F2" d="M1413.84,1295.21c0,242.97-128.68,455.89-321.6,574.32
		c-93.18,57.2-201.34,92.359-317.24,98.22c-8.29,0.43-16.63,0.7-25,0.81c-3.19,0.051-6.38,0.07-9.58,0.07
		c-10.19,0-20.33-0.229-30.42-0.67c-9.05-0.41-18.05-0.99-27-1.75c-5.69-0.47-11.36-1.02-17-1.65c-7.71-0.84-15.38-1.819-23-2.92
		c-8.39-1.22-16.72-2.59-25-4.109c-13.48-2.471-26.82-5.351-40-8.62c-7.72-1.91-15.39-3.95-23-6.13c-13.51-3.86-26.85-8.13-40-12.8
		c-45.6-16.2-88.94-37.171-129.42-62.311c-7.47-4.64-14.84-9.42-22.1-14.34c-12.07-8.16-23.86-16.71-35.35-25.62
		c-8.1-6.28-16.06-12.75-23.87-19.4c-12.17-10.35-23.96-21.13-35.36-32.31c-7.55-7.39-14.91-14.96-22.09-22.7
		c-12.33-13.27-24.13-27.05-35.36-41.29c-7-8.859-13.78-17.91-20.33-27.13c-12.65-17.8-24.46-36.24-35.36-55.26
		c-56.48-98.53-88.77-212.7-88.77-334.41c0-371.93,301.51-673.43,673.43-673.43S1413.84,923.28,1413.84,1295.21z"/>
</g>
<g id="Creon3" display="none">
	<path display="inline" fill="#7AA8B2" d="M1092.24,1115.028V1862.1c-93.18,57.306-201.34,92.529-317.24,98.4V1007L1092.24,1115.028
		z"/>
	<path display="inline" fill="#04252D" stroke="#04252D" stroke-width="10" stroke-miterlimit="10" d="M750,1012v944.56
		c-3.19,0.051-6.38,0.07-9.58,0.07c-10.19,0-20.33-0.229-30.42-0.67v-929.28L750,1012z"/>
	<path display="inline" fill="#04252D" stroke="#04252D" stroke-width="10" stroke-miterlimit="10" d="M683,1037.46v916.75
		c-5.69-0.47-11.36-1.02-17-1.65c-7.71-0.84-15.38-1.819-23-2.92v-897.87L683,1037.46z"/>
	<path display="inline" fill="#04252D" stroke="#04252D" stroke-width="10" stroke-miterlimit="10" d="M618,1060.46v885.07
		c-13.48-2.471-26.82-5.351-40-8.62v-862.98L618,1060.46z"/>
	<path display="inline" fill="#04252D" stroke="#04252D" stroke-width="10" stroke-miterlimit="10" d="M555,1078.46v852.32
		c-13.51-3.86-26.85-8.13-40-12.8v-826.05L555,1078.46z"/>
</g>
<g id="creon_4" display="none">
	<path display="inline" fill="#7AA8B2" d="M666,1469.72v491.84c-7.71-0.84-15.38-1.819-23-2.92c-8.39-1.22-16.72-2.59-25-4.109
		c-13.48-2.471-26.82-5.351-40-8.62c-7.72-1.91-15.39-3.95-23-6.13c-13.51-3.86-26.85-8.13-40-12.8
		c-45.6-16.2-88.94-37.171-129.42-62.311v-462.02L515,1433.6l40,9.57l23,5.5l40,9.57l25,5.979L666,1469.72z"/>
	<path display="inline" fill="#04252D" stroke="#04252D" stroke-width="10" stroke-miterlimit="10" d="M363.48,1411.3v442.03
		c-12.07-8.16-23.86-16.71-35.35-25.62v-407.46L363.48,1411.3z"/>
	<path display="inline" fill="#04252D" stroke="#04252D" stroke-width="10" stroke-miterlimit="10" d="M304.26,1427.78v380.529
		c-12.17-10.35-23.96-21.13-35.36-32.31v-339.51L304.26,1427.78z"/>
	<path display="inline" fill="#04252D" stroke="#04252D" stroke-width="10" stroke-miterlimit="10" d="M246.81,1442.66v310.64
		c-12.33-13.27-24.13-27.05-35.36-41.29v-260.63L246.81,1442.66z"/>
	<path display="inline" fill="#04252D" stroke="#04252D" stroke-width="10" stroke-miterlimit="10" d="M191.12,1454.31v230.57
		c-12.65-17.8-24.46-36.24-35.36-55.26v-166.59L191.12,1454.31z"/>
</g>
<g id="Layer_27" display="none">
	<circle display="inline" cx="1241" cy="1863" r="186"/>
	
		<line display="inline" fill="none" stroke="#FFFFFF" stroke-width="10" stroke-miterlimit="10" x1="1146.752" y1="1666.868" x2="1146.752" y2="2092.91"/>
	
		<line display="inline" fill="none" stroke="#FFFFFF" stroke-width="10" stroke-miterlimit="10" x1="1055" y1="1959.895" x2="1474.788" y2="1959.895"/>
	
		<line display="inline" fill="none" stroke="#FFFFFF" stroke-width="10" stroke-miterlimit="10" x1="1055" y1="2069.547" x2="1395.61" y2="1666.868"/>
</g>
<g id="Creon_Design_1">
	<rect x="536" y="665" fill="none" width="2643" height="396"/>
	<text transform="matrix(1 0 0 1 536 971.1494)"><tspan x="0" y="0" fill="#FFFFFF" font-family="'Arial-BoldMT'" font-size="427.59">C R E</tspan><tspan x="1140.38" y="0" font-family="'Arial-BoldMT'" font-size="427.59"> </tspan><tspan x="1259.178" y="0" fill="none" font-family="'Arial-BoldMT'" font-size="427.59">O</tspan><tspan x="1591.771" y="0" font-family="'Arial-BoldMT'" font-size="427.59"> </tspan><tspan x="1710.569" y="0" fill="#FFFFFF" font-family="'Arial-BoldMT'" font-size="427.59">N S</tspan></text>
	<rect x="584.5" y="1098" fill="none" width="2424.439" height="484"/>
	<text transform="matrix(1 0 0 1 584.5 1312.7969)" fill="#706F70" font-family="'ArialNarrow'" font-size="300">D    E    S    I    G    N</text>
</g>
<g id="Layer_30">
	<path opacity="0.8" fill="#FFFEFE" d="M1865.592,672.562v229.254l-55.312-0.132C1797.342,876.924,1790,848.6,1790,818.5
		C1790,757.66,1820.01,704.039,1865.592,672.562z"/>
	<path opacity="0.8" fill="#FFFFFF" d="M2058.298,675.212l-177.473,214.497V663.182c23.664-12.888,50.63-20.182,79.25-20.182
		C1996.668,643,2030.556,654.926,2058.298,675.212z"/>
	<path opacity="0.8" fill="#FFFFFF" d="M2130.15,818.5c0,30.392-7.488,58.981-20.665,83.91l-218.675-0.538l179.521-216.988
		C2106.934,717.06,2130.15,764.982,2130.15,818.5z"/>
	<path opacity="0.8" fill="#FFFFFF" d="M2100.113,918.111C2069.435,963.958,2018.156,994,1960.075,994
		c-28.62,0-55.586-7.294-79.25-20.182v-56.236L2100.113,918.111z"/>
	<path opacity="0.8" fill="#FFFFFF" d="M1865.592,932.349v32.09c-5.615-3.868-10.999-8.086-16.111-12.615L1865.592,932.349z"/>
	<path opacity="0.8" fill="#FFFFFF" d="M1857.811,917.525l-19.467,23.532c-6.895-7.284-13.177-15.191-18.755-23.626
		L1857.811,917.525z"/>
	<polygon fill="none" points="2126.813,902.447 2126.776,918.176 2100.113,918.111 1880.825,917.582 1880.825,978.903 
		1865.592,978.903 1865.592,932.349 1849.48,951.823 1838.874,964.646 1827.279,954.427 1838.344,941.057 1857.811,917.525 
		1819.589,917.431 1807.968,917.403 1808.004,901.674 1810.28,901.684 1865.592,901.815 1865.592,649.917 1880.825,649.917 
		1880.825,889.709 2058.298,675.212 2071.647,659.078 2083.232,669.288 2070.331,684.884 1890.811,901.872 2109.485,902.41 	"/>
</g>
</svg>
